<svg width="169" height="145" viewBox="0 0 169 145" fill="none" xmlns="http://www.w3.org/2000/svg">
<g clip-path="url(#clip0_210_954)">
<path d="M96.0644 144.23H48.8476C42.6956 144.23 37.6914 139.222 37.6914 133.066V11.1643C37.6914 5.00779 42.6956 0 48.8476 0H96.0644C102.216 0 107.221 5.00779 107.221 11.1643V133.063C107.221 139.22 102.216 144.228 96.0644 144.228V144.23Z" fill="#395833"/>
<path d="M96.113 141.216H48.8015C44.1857 141.216 40.4289 137.457 40.4289 132.838V10.7053C40.4289 6.08608 44.1857 2.3266 48.8015 2.3266H96.113C100.729 2.3266 104.486 6.08608 104.486 10.7053V132.838C104.486 137.457 100.729 141.216 96.113 141.216Z" fill="white"/>
<path d="M79.8458 10.273H64.7896C63.0544 10.273 61.642 8.85956 61.642 7.12311C61.642 5.38665 63.0544 3.97321 64.7896 3.97321H79.8458C81.581 3.97321 82.9934 5.38665 82.9934 7.12311C82.9934 8.85956 81.581 10.273 79.8458 10.273Z" fill="#395833"/>
<path d="M82.5008 60.6642L77.8218 57.0212C77.8218 57.0212 72.4827 58.6873 72.3444 58.7553C72.2061 58.8233 64.0567 77.7373 64.0567 77.7373C64.0567 77.7373 84.9325 88.428 83.406 87.3861C81.8795 86.3467 82.195 72.2559 83.6147 70.4174C85.0392 68.5766 83.8234 63.9622 83.8234 63.9622L82.5056 60.6666H82.4983L82.5008 60.6642Z" fill="#2F2E43"/>
<path d="M69.5632 69.1862H75.9094V79.26L68.9128 76.9601L69.5632 69.1862Z" fill="#F3A3A6"/>
<path d="M83.3647 93.0473C82.4328 93.4334 81.4742 93.7686 80.4913 94.0478C78.1373 94.723 75.6497 95.08 73.0846 95.08C70.8373 95.08 68.6531 94.8056 66.5636 94.2834C65.8259 94.1013 65.1002 93.8876 64.3916 93.6447C63.4961 93.3387 62.6224 92.9914 61.7706 92.5931L62.1759 90.6114L63.2461 85.3656L64.5008 79.2358L64.7338 78.0822L65.2895 75.3646L65.2968 75.3306H77.9892L77.9965 75.3549L81.3795 86.4925L82.7944 91.1578L83.3671 93.0497L83.3647 93.0473Z" fill="white"/>
<path d="M87.6918 90.7813C86.3303 91.6629 84.8815 92.4231 83.3647 93.0472C82.4328 93.4334 81.4742 93.7685 80.4913 94.0478L80.0302 92.1317L78.3047 84.9648L75.9822 75.333H75.9847C75.9847 75.333 76.2079 75.3281 76.5865 75.3281C76.9408 75.3281 77.4286 75.333 77.9941 75.3524C79.3507 75.401 81.1442 75.5394 82.5469 75.9037C83.6292 76.183 84.4786 76.5983 84.7213 77.2079C84.9616 77.8126 85.9639 82.4464 87.2598 88.7073C87.4006 89.3825 87.5413 90.0722 87.6894 90.7813H87.6918Z" fill="white"/>
<path d="M75.0406 71.9718C78.89 71.9718 82.0105 68.849 82.0105 64.9968C82.0105 61.1446 78.89 58.0219 75.0406 58.0219C71.1912 58.0219 68.0707 61.1446 68.0707 64.9968C68.0707 68.849 71.1912 71.9718 75.0406 71.9718Z" fill="#F3A3A6"/>
<path d="M83.7239 63.7169V63.7266L82.0154 64.0205C81.9232 63.6441 81.8188 63.2943 81.712 62.9738C81.581 62.5852 81.4426 62.2355 81.297 61.9222C80.9257 61.1256 80.5083 60.567 80.0812 60.1809C78.477 58.7261 76.7006 59.6927 76.4652 59.6442C76.1545 59.581 71.9682 64.1274 71.4319 69.1837C71.3761 69.7447 71.3615 70.313 71.4028 70.8838C71.4052 70.9056 71.4052 70.925 71.4052 70.9469C71.5168 72.6712 70.9125 74.1162 70.0219 75.2892C70.0122 75.3014 70.0025 75.3135 69.9928 75.3257C69.6773 75.7385 69.323 76.1174 68.9565 76.4647C67.8984 77.4556 66.7044 78.1769 65.8137 78.6334C65.1269 78.988 64.6222 79.1847 64.4984 79.2309C64.479 79.2382 64.4693 79.2406 64.4693 79.2406C64.4693 79.2406 63.3359 81.3705 63.2461 85.3607C63.2097 87.034 63.3553 89.0327 63.8431 91.3399C63.9451 91.8208 64.0591 92.3114 64.1926 92.8165C64.2654 93.0958 64.3334 93.3727 64.3916 93.6398C63.4961 93.3338 62.6224 92.9865 61.7706 92.5882C61.0911 92.2749 60.431 91.9349 59.7854 91.5658C59.1957 91.2331 58.6181 90.876 58.0575 90.4972C58.3536 89.7905 58.64 89.1736 58.8899 88.6854C59.0598 88.3527 59.2127 88.0831 59.3365 87.8864C60.863 85.4554 59.8218 81.2248 59.8218 81.2248C57.4654 79.1434 60.2368 74.5631 60.2368 74.5631C60.2368 74.5631 59.749 68.4551 61.2076 67.2773C62.6661 66.097 62.7341 63.1802 62.7341 63.1802C65.3041 52.0062 73.6937 54.1579 73.6937 54.1579C84.2529 52.9971 83.7482 63.3429 83.7263 63.7096L83.7239 63.7169Z" fill="#2F2E43"/>
<path d="M70.8398 75.3743L70.3738 77.4386L69.6579 80.5958L66.9981 92.3624L66.5636 94.2834C65.8259 94.1013 65.1003 93.8875 64.3916 93.6447C63.4961 93.3387 62.6224 92.9914 61.7706 92.5931C61.0911 92.2798 60.431 91.9398 59.7855 91.5706C59.9286 90.8785 60.067 90.2009 60.2053 89.5379C61.6469 82.5435 62.7875 77.2273 63.0471 76.5764C63.2923 75.9596 64.0786 75.6025 65.0639 75.4058C65.1367 75.3913 65.2143 75.3767 65.2896 75.3645C65.3599 75.3524 65.4352 75.3403 65.5055 75.3305C66.6656 75.1605 68.0101 75.1727 69.0609 75.2261C69.4249 75.2455 69.7525 75.2698 70.0243 75.2917C70.1772 75.3038 70.3156 75.3184 70.4272 75.3281C70.6893 75.3548 70.8422 75.3743 70.8422 75.3743H70.8398Z" fill="white"/>
<path d="M73.0846 95.5657C70.8373 95.5657 68.6022 95.2937 66.4447 94.7545C65.7021 94.5724 64.9571 94.3514 64.2314 94.1037C63.3141 93.7904 62.4161 93.4309 61.5643 93.0351C60.8897 92.7242 60.2101 92.3745 59.5428 91.9932C58.9433 91.6556 58.3512 91.2889 57.7833 90.9052C50.129 85.7662 45.5568 77.2103 45.5568 68.0204C45.5568 52.8319 57.9046 40.4727 73.0846 40.4727C88.2645 40.4727 100.612 52.8295 100.612 68.0204C100.612 77.4191 95.88 86.0795 87.9563 91.1893C86.5657 92.0879 85.0829 92.8651 83.5516 93.4965C82.6027 93.8899 81.6198 94.2324 80.6272 94.5165C78.1882 95.2135 75.6522 95.5681 73.087 95.5681L73.0846 95.5657ZM73.0846 41.4417C58.441 41.4417 46.5276 53.3638 46.5276 68.018C46.5276 76.8848 50.9371 85.1372 58.3245 90.0989C58.8705 90.468 59.4408 90.8202 60.0208 91.1456C60.6664 91.5148 61.3216 91.8523 61.972 92.1511C62.7947 92.5348 63.6587 92.8796 64.5469 93.1832C65.2459 93.4236 65.9642 93.6349 66.6801 93.8122C68.7624 94.3319 70.9174 94.5942 73.087 94.5942C75.56 94.5942 78.0087 94.2518 80.3603 93.5791C81.3189 93.3071 82.2678 92.9743 83.1827 92.5955C84.6607 91.9859 86.0901 91.2379 87.4321 90.3709C95.0791 85.4408 99.644 77.084 99.644 68.018C99.644 53.3638 87.7306 41.4417 73.087 41.4417H73.0846Z" fill="#395833"/>
<path d="M0 144.59C0 144.818 0.259673 145 0.584871 145H168.045C168.368 145 168.63 144.818 168.63 144.59C168.63 144.361 168.37 144.179 168.045 144.179H0.584871C0.2621 144.179 0 144.361 0 144.59Z" fill="#2F2E43"/>
<path d="M105.468 77.9462C105.985 77.4386 106.621 77.0646 107.325 76.8557L112.443 71.2723L115.142 73.8612L109.657 79.2479C109.422 79.9376 109.024 80.5545 108.492 81.0475C107.179 82.3031 105.439 82.6261 104.604 81.7688C103.767 80.9139 104.153 79.2017 105.464 77.9486H105.468V77.9462Z" fill="#F3A3A6"/>
<path d="M107.602 75.4325L110.32 78.852L124.369 68.2098L124.381 68.1856L132.591 52.8538C133.848 50.5053 133.152 47.5837 130.97 46.0585C129.635 45.1235 127.975 44.8636 126.417 45.3421C124.859 45.8205 123.633 46.9693 123.051 48.492L117.724 62.4443L107.602 75.4277V75.4325Z" fill="white"/>
<path d="M130.737 39.97H125.009V49.0627L131.324 46.9863L130.737 39.97Z" fill="#F3A3A6"/>
<path d="M119.5 36.1911C119.5 39.6689 122.316 42.4861 125.791 42.4861C129.266 42.4861 132.081 39.6689 132.081 36.1911C132.081 32.7134 129.266 29.8962 125.791 29.8962C122.316 29.8962 119.5 32.7134 119.5 36.1911Z" fill="#F3A3A6"/>
<path d="M130.242 40.2153L130.856 41.381L133.564 36.2299C135.195 31.2319 129.499 28.3613 129.499 28.3613C127.64 26.1707 123.905 28.7328 123.905 28.7328C118.518 27.5355 121.119 32.0795 121.119 32.0795C121.119 32.0795 122.956 32.1207 122.956 33.6071C122.956 35.0958 124.958 34.9914 124.958 34.9914L126.526 37.7381L127.393 36.6841C130.613 35.3192 130.242 40.2153 130.242 40.2153Z" fill="#2F2E43"/>
<path d="M133.057 133.139H127.975V140.354H133.057V133.139Z" fill="#F3A3A6"/>
<path d="M123.027 144.721C125.257 144.721 128.514 144.488 128.538 144.485C129.409 144.563 133.758 144.905 133.974 143.91C134.173 142.994 133.88 142.037 133.838 141.906C133.418 137.746 133.263 137.697 133.171 137.67C133.023 137.627 132.591 137.833 131.89 138.285L131.846 138.314L131.836 138.365C131.824 138.428 131.513 139.956 130.04 139.723C129.031 139.562 128.703 139.339 128.599 139.23C128.684 139.191 128.791 139.123 128.866 139.006C128.975 138.836 128.994 138.618 128.922 138.355C128.732 137.666 128.164 136.643 128.14 136.599L128.075 136.483L122.299 140.383L118.731 141.403C118.462 141.478 118.246 141.673 118.137 141.93C117.986 142.29 118.078 142.707 118.37 142.97C119.018 143.553 120.306 144.551 121.656 144.675C122.015 144.709 122.49 144.721 123.024 144.721H123.027Z" fill="#2F2E43"/>
<path d="M143.816 122.323L139.901 125.564L144.497 131.124L148.412 127.882L143.816 122.323Z" fill="#F3A3A6"/>
<path d="M143.471 137.636C145.189 136.213 147.55 133.957 147.567 133.94C148.288 133.447 151.858 130.936 151.389 130.03C150.96 129.197 150.125 128.646 150.008 128.573C147.036 125.632 146.888 125.695 146.798 125.734C146.655 125.795 146.453 126.227 146.201 127.023L146.186 127.072L146.21 127.118C146.244 127.176 146.977 128.553 145.694 129.311C144.813 129.831 144.419 129.867 144.269 129.85C144.31 129.765 144.349 129.644 144.332 129.506C144.308 129.306 144.184 129.124 143.961 128.969C143.373 128.558 142.286 128.131 142.24 128.114L142.116 128.065L140.151 134.754L138.051 137.816C137.894 138.047 137.85 138.333 137.93 138.603C138.044 138.977 138.381 139.239 138.772 139.256C139.641 139.293 141.269 139.239 142.388 138.474C142.684 138.27 143.058 137.976 143.471 137.636Z" fill="#2F2E43"/>
<path d="M119.573 77.4969L127.32 135.159H133.13L137.003 77.4969H119.571H119.573Z" fill="#CCE29E"/>
<path d="M134.581 108.993L146.15 124.014L141.199 128.107L121.345 109.21L119.571 77.4969L123.121 80.6735L134.581 108.993Z" fill="#CCE29E"/>
<path d="M123.121 43.5765L119.571 77.4968H137.003L138.355 66.488C139.187 59.6879 137.801 52.8003 134.404 46.8551L131.729 42.1776L123.121 43.5765Z" fill="white"/>
<path d="M121.558 87.136C121.818 86.4584 122.243 85.8537 122.796 85.3728L125.138 78.1647L128.669 79.4009L125.915 86.5774C125.99 87.3012 125.881 88.0273 125.602 88.7C124.929 90.3855 123.478 91.4031 122.364 90.9708C121.25 90.5385 120.891 88.8215 121.563 87.136H121.558Z" fill="#F3A3A6"/>
<path d="M122.464 83.9472L126.354 85.929L134.724 70.4126V70.3859L135.838 53.0286C136.008 50.3717 134.164 48.0014 131.545 47.5206C129.941 47.2267 128.322 47.6784 127.106 48.7616C125.886 49.8447 125.247 51.4015 125.349 53.0286L126.288 67.933L122.464 83.9497V83.9472Z" fill="white"/>
</g>
<defs>
<clipPath id="clip0_210_954">
<rect width="168.63" height="145" fill="white"/>
</clipPath>
</defs>
</svg>
