<svg width="32" height="32" viewBox="0 0 32 32" fill="none" xmlns="http://www.w3.org/2000/svg">
<path d="M23.9761 24.9667C23.0444 23.7332 21.8391 22.7328 20.455 22.0445C19.0709 21.3562 17.5459 20.9986 16.0001 21C14.4543 20.9986 12.9292 21.3562 11.5451 22.0445C10.1611 22.7328 8.95571 23.7332 8.02406 24.9667M23.9761 24.9667C25.7941 23.3496 27.0762 21.2181 27.655 18.8548C28.2337 16.4915 28.0804 14.0081 27.2153 11.734C26.3503 9.45983 24.8144 7.50237 22.8113 6.1212C20.8081 4.74003 18.4325 4.0004 15.9994 4.0004C13.5663 4.0004 11.1906 4.74003 9.18753 6.1212C7.18443 7.50237 5.6485 9.45983 4.78344 11.734C3.91838 14.0081 3.76506 16.4915 4.34382 18.8548C4.92257 21.2181 6.20606 23.3496 8.02406 24.9667M23.9761 24.9667C21.7814 26.9242 18.9409 28.0042 16.0001 28C13.0588 28.0045 10.219 26.9245 8.02406 24.9667M20.0001 13C20.0001 14.0609 19.5786 15.0783 18.8285 15.8284C18.0783 16.5786 17.0609 17 16.0001 17C14.9392 17 13.9218 16.5786 13.1716 15.8284C12.4215 15.0783 12.0001 14.0609 12.0001 13C12.0001 11.9391 12.4215 10.9217 13.1716 10.1716C13.9218 9.42143 14.9392 9 16.0001 9C17.0609 9 18.0783 9.42143 18.8285 10.1716C19.5786 10.9217 20.0001 11.9391 20.0001 13Z" stroke="black" stroke-width="1.5" stroke-linecap="round" stroke-linejoin="round"/>
</svg>
