<svg width="360" height="360" viewBox="0 0 360 360" fill="none" xmlns="http://www.w3.org/2000/svg">
<path d="M0 0H360V360H0V0Z" fill="#CCE29E"/>
<path d="M116.325 197.325C115.755 197.295 115.2 197.25 114.66 197.19C114.21 197.13 113.76 197.085 113.31 197.055C112.89 197.025 112.575 197.01 112.365 197.01C111.195 197.01 110.025 197.025 108.855 197.055C107.685 197.115 106.53 197.205 105.39 197.325C105.42 196.065 105.435 194.835 105.435 193.635C105.465 192.405 105.48 191.16 105.48 189.9C105.48 187.65 105.435 185.415 105.345 183.195C105.285 180.975 105.225 178.755 105.165 176.535L95.715 197.91C94.335 194.16 92.85 190.485 91.26 186.885C89.7 183.255 88.065 179.64 86.355 176.04L87.075 198.27C86.745 198.27 86.4 198.255 86.04 198.225C85.71 198.225 85.365 198.225 85.005 198.225C83.865 198.225 82.74 198.27 81.63 198.36C80.55 198.45 79.455 198.54 78.345 198.63C78.495 195.84 78.645 193.065 78.795 190.305C78.945 187.545 79.02 184.77 79.02 181.98C79.02 178.71 78.99 175.455 78.93 172.215C78.9 168.975 78.87 165.72 78.84 162.45C81 162.45 83.1 162.39 85.14 162.27C87.21 162.15 89.325 161.985 91.485 161.775C92.205 164.175 92.94 166.56 93.69 168.93C94.47 171.27 95.295 173.61 96.165 175.95C97.095 173.73 98.145 171.555 99.315 169.425C100.515 167.295 101.73 165.18 102.96 163.08C105 163.02 107.01 162.96 108.99 162.9C111 162.84 113.025 162.795 115.065 162.765C115.155 165.465 115.26 168.135 115.38 170.775C115.53 173.415 115.665 176.085 115.785 178.785C115.875 180.915 115.95 183.045 116.01 185.175C116.1 187.305 116.175 189.42 116.235 191.52L116.325 195.3V197.325Z" fill="#466C40"/>
<path d="M152.325 196.425L145.485 197.46C145.005 195.93 144.525 194.415 144.045 192.915C143.565 191.385 143.1 189.855 142.65 188.325L131.58 188.73L130.185 194.715H123.255C123.675 189.615 124.11 184.545 124.56 179.505C125.01 174.465 125.445 169.41 125.865 164.34C128.025 163.98 130.17 163.68 132.3 163.44C134.46 163.2 136.635 163.08 138.825 163.08C141.495 163.08 144.165 163.125 146.835 163.215C147.315 166.335 147.78 169.455 148.23 172.575C148.71 175.665 149.205 178.77 149.715 181.89C150.075 184.35 150.465 186.78 150.885 189.18C151.335 191.58 151.815 193.995 152.325 196.425ZM141.075 182.205C141.045 181.935 140.97 181.44 140.85 180.72C140.73 179.97 140.595 179.19 140.445 178.38C140.295 177.54 140.115 176.79 139.905 176.13C139.725 175.44 139.545 175.035 139.365 174.915C139.305 174.885 139.155 174.855 138.915 174.825C138.705 174.795 138.465 174.765 138.195 174.735C137.955 174.705 137.715 174.69 137.475 174.69C137.235 174.69 137.07 174.69 136.98 174.69C136.83 174.69 136.62 174.69 136.35 174.69C136.11 174.69 135.84 174.705 135.54 174.735C135.27 174.735 135 174.765 134.73 174.825C134.49 174.885 134.325 174.96 134.235 175.05C134.175 175.08 134.1 175.275 134.01 175.635C133.92 175.995 133.8 176.445 133.65 176.985C133.53 177.495 133.395 178.05 133.245 178.65C133.125 179.25 133.005 179.82 132.885 180.36C132.765 180.9 132.66 181.365 132.57 181.755C132.51 182.145 132.465 182.37 132.435 182.43L141.075 182.205Z" fill="#466C40"/>
<path d="M181.8 170.37V173.52L173.115 173.97C172.995 175.71 172.905 177.435 172.845 179.145C172.785 180.855 172.755 182.565 172.755 184.275C172.755 186.375 172.695 188.475 172.575 190.575C172.485 192.645 172.365 194.715 172.215 196.785C171.135 196.845 170.055 196.89 168.975 196.92C167.895 196.98 166.815 197.01 165.735 197.01C165.345 197.01 164.955 196.995 164.565 196.965C164.205 196.965 163.845 196.965 163.485 196.965C163.545 195.135 163.59 193.32 163.62 191.52C163.68 189.69 163.71 187.875 163.71 186.075C163.71 184.275 163.665 182.475 163.575 180.675C163.485 178.845 163.38 177.015 163.26 175.185C162.39 175.215 161.505 175.245 160.605 175.275C159.735 175.305 158.85 175.32 157.95 175.32C157.44 175.32 156.93 175.32 156.42 175.32C155.94 175.32 155.445 175.305 154.935 175.275C154.845 173.055 154.785 170.85 154.755 168.66C154.725 166.47 154.695 164.28 154.665 162.09C159.165 162.18 163.635 162.315 168.075 162.495C172.515 162.645 176.97 162.78 181.44 162.9C181.56 164.19 181.65 165.45 181.71 166.68C181.77 167.88 181.8 169.11 181.8 170.37Z" fill="#466C40"/>
<path d="M215.01 185.895L214.965 192.915C213.585 193.185 212.22 193.44 210.87 193.68C209.52 193.92 208.155 194.13 206.775 194.31C205.335 194.49 203.895 194.655 202.455 194.805C201.015 194.955 199.575 195.03 198.135 195.03C197.715 195.03 197.1 195.015 196.29 194.985C195.48 194.955 194.64 194.895 193.77 194.805C192.9 194.715 192.075 194.61 191.295 194.49C190.515 194.34 189.945 194.16 189.585 193.95C189.255 193.74 188.94 193.5 188.64 193.23C188.34 192.93 188.07 192.63 187.83 192.33C187.2 191.55 186.675 190.695 186.255 189.765C185.835 188.835 185.505 187.875 185.265 186.885C185.025 185.895 184.845 184.89 184.725 183.87C184.635 182.85 184.59 181.845 184.59 180.855C184.59 179.655 184.65 178.41 184.77 177.12C184.92 175.83 185.145 174.555 185.445 173.295C185.745 172.035 186.135 170.82 186.615 169.65C187.125 168.48 187.74 167.4 188.46 166.41C188.67 166.14 188.94 165.81 189.27 165.42C189.6 165.03 189.93 164.745 190.26 164.565C191.07 164.115 191.97 163.74 192.96 163.44C193.98 163.14 195.03 162.915 196.11 162.765C197.19 162.585 198.255 162.465 199.305 162.405C200.385 162.315 201.375 162.27 202.275 162.27C203.985 162.27 205.695 162.375 207.405 162.585C209.115 162.765 210.78 163.095 212.4 163.575C212.34 164.385 212.295 165.21 212.265 166.05C212.235 166.86 212.22 167.67 212.22 168.48C212.22 170.43 212.265 172.395 212.355 174.375C211.005 173.865 209.595 173.505 208.125 173.295C206.655 173.055 205.2 172.935 203.76 172.935C203.46 172.935 203.025 172.965 202.455 173.025C201.885 173.055 201.24 173.115 200.52 173.205C199.8 173.265 199.05 173.355 198.27 173.475C197.52 173.595 196.815 173.745 196.155 173.925C195.495 174.105 194.91 174.315 194.4 174.555C193.92 174.795 193.605 175.05 193.455 175.32C193.335 175.56 193.23 175.905 193.14 176.355C193.08 176.775 193.02 177.225 192.96 177.705C192.93 178.185 192.9 178.65 192.87 179.1C192.87 179.55 192.87 179.91 192.87 180.18C192.87 180.45 192.9 180.99 192.96 181.8C193.02 182.61 193.095 183.48 193.185 184.41C193.275 185.31 193.38 186.135 193.5 186.885C193.65 187.635 193.8 188.07 193.95 188.19C194.1 188.28 194.34 188.34 194.67 188.37C195.03 188.37 195.27 188.37 195.39 188.37C196.86 188.37 198.435 188.295 200.115 188.145C201.795 187.995 203.49 187.8 205.2 187.56C206.94 187.29 208.65 187.02 210.33 186.75C212.01 186.45 213.57 186.165 215.01 185.895Z" fill="#466C40"/>
<path d="M247.635 196.425L238.68 196.65C238.62 194.7 238.575 192.765 238.545 190.845C238.515 188.925 238.47 186.99 238.41 185.04L229.95 185.445C229.92 185.745 229.905 186.045 229.905 186.345C229.905 186.615 229.905 186.885 229.905 187.155C229.905 188.835 229.965 190.515 230.085 192.195C230.235 193.845 230.385 195.495 230.535 197.145C229.935 197.175 229.32 197.19 228.69 197.19C228.09 197.22 227.49 197.235 226.89 197.235C225.72 197.235 224.535 197.205 223.335 197.145C222.165 197.115 220.995 197.1 219.825 197.1C219.885 194.31 219.96 191.55 220.05 188.82C220.14 186.09 220.215 183.33 220.275 180.54C220.335 177.81 220.365 175.11 220.365 172.44C220.395 169.77 220.425 167.085 220.455 164.385H227.97C228.21 166.635 228.375 168.885 228.465 171.135C228.555 173.355 228.69 175.59 228.87 177.84C230.31 177.81 231.735 177.795 233.145 177.795C234.555 177.795 235.995 177.78 237.465 177.75L237.915 163.17C238.335 163.14 238.74 163.125 239.13 163.125C239.55 163.125 239.97 163.125 240.39 163.125C241.59 163.125 242.76 163.155 243.9 163.215C245.07 163.275 246.24 163.41 247.41 163.62C247.56 169.11 247.62 174.585 247.59 180.045C247.56 185.475 247.575 190.935 247.635 196.425Z" fill="#466C40"/>
<path d="M283.41 196.425L276.57 197.46C276.09 195.93 275.61 194.415 275.13 192.915C274.65 191.385 274.185 189.855 273.735 188.325L262.665 188.73L261.27 194.715H254.34C254.76 189.615 255.195 184.545 255.645 179.505C256.095 174.465 256.53 169.41 256.95 164.34C259.11 163.98 261.255 163.68 263.385 163.44C265.545 163.2 267.72 163.08 269.91 163.08C272.58 163.08 275.25 163.125 277.92 163.215C278.4 166.335 278.865 169.455 279.315 172.575C279.795 175.665 280.29 178.77 280.8 181.89C281.16 184.35 281.55 186.78 281.97 189.18C282.42 191.58 282.9 193.995 283.41 196.425ZM272.16 182.205C272.13 181.935 272.055 181.44 271.935 180.72C271.815 179.97 271.68 179.19 271.53 178.38C271.38 177.54 271.2 176.79 270.99 176.13C270.81 175.44 270.63 175.035 270.45 174.915C270.39 174.885 270.24 174.855 270 174.825C269.79 174.795 269.55 174.765 269.28 174.735C269.04 174.705 268.8 174.69 268.56 174.69C268.32 174.69 268.155 174.69 268.065 174.69C267.915 174.69 267.705 174.69 267.435 174.69C267.195 174.69 266.925 174.705 266.625 174.735C266.355 174.735 266.085 174.765 265.815 174.825C265.575 174.885 265.41 174.96 265.32 175.05C265.26 175.08 265.185 175.275 265.095 175.635C265.005 175.995 264.885 176.445 264.735 176.985C264.615 177.495 264.48 178.05 264.33 178.65C264.21 179.25 264.09 179.82 263.97 180.36C263.85 180.9 263.745 181.365 263.655 181.755C263.595 182.145 263.55 182.37 263.52 182.43L272.16 182.205Z" fill="#466C40"/>
</svg>
