<svg width="16" height="16" viewBox="0 0 16 16" fill="none" xmlns="http://www.w3.org/2000/svg">
<path d="M9.99993 12.752C10.5686 12.9171 11.1578 13.0006 11.7499 13C12.7022 13.0014 13.6421 12.7843 14.4973 12.3653C14.5226 11.7678 14.3523 11.1783 14.0125 10.6862C13.6726 10.1941 13.1815 9.82624 12.6137 9.63834C12.046 9.45043 11.4324 9.45275 10.866 9.64493C10.2997 9.83711 9.81144 10.2087 9.47527 10.7033M9.99993 12.752V12.75C9.99993 12.008 9.80927 11.31 9.47527 10.7033M9.99993 12.752V12.8227C8.71692 13.5954 7.24701 14.0025 5.74927 14C4.19527 14 2.74127 13.57 1.49993 12.8227L1.49927 12.75C1.49876 11.8063 1.81234 10.8893 2.39059 10.1435C2.96884 9.39773 3.77885 8.86562 4.69293 8.63107C5.607 8.39651 6.57315 8.47285 7.43904 8.84806C8.30494 9.22327 9.02133 9.87599 9.47527 10.7033M7.99993 4.25C7.99993 4.84674 7.76288 5.41903 7.34092 5.84099C6.91897 6.26295 6.34667 6.5 5.74993 6.5C5.1532 6.5 4.5809 6.26295 4.15894 5.84099C3.73699 5.41903 3.49993 4.84674 3.49993 4.25C3.49993 3.65326 3.73699 3.08097 4.15894 2.65901C4.5809 2.23705 5.1532 2 5.74993 2C6.34667 2 6.91897 2.23705 7.34092 2.65901C7.76288 3.08097 7.99993 3.65326 7.99993 4.25ZM13.4999 5.75C13.4999 6.21413 13.3156 6.65925 12.9874 6.98744C12.6592 7.31563 12.2141 7.5 11.7499 7.5C11.2858 7.5 10.8407 7.31563 10.5125 6.98744C10.1843 6.65925 9.99993 6.21413 9.99993 5.75C9.99993 5.28587 10.1843 4.84075 10.5125 4.51256C10.8407 4.18437 11.2858 4 11.7499 4C12.2141 4 12.6592 4.18437 12.9874 4.51256C13.3156 4.84075 13.4999 5.28587 13.4999 5.75Z" stroke="#395833" stroke-linecap="round" stroke-linejoin="round"/>
</svg>
