<svg width="16" height="16" viewBox="0 0 16 16" fill="none" xmlns="http://www.w3.org/2000/svg">
<path d="M2.84005 6.76467C2.65668 8.16839 2.54742 9.58079 2.51272 10.996C4.43192 11.7977 6.2695 12.7822 8.00005 13.936C9.73081 12.7822 11.5686 11.7976 13.4881 10.996C13.4533 9.58079 13.3441 8.16839 13.1607 6.76467M13.1607 6.76467C13.744 6.56867 14.3354 6.38734 14.9327 6.22201C12.7571 4.69684 10.4347 3.3926 8.00005 2.32867C5.56538 3.39282 3.24298 4.69729 1.06738 6.22267C1.6629 6.38709 2.25379 6.56783 2.83938 6.76467C4.61846 7.36281 6.34465 8.10806 8.00005 8.99267C9.65522 8.10805 11.3818 7.36281 13.1607 6.76467ZM4.50005 10C4.63266 10 4.75983 9.94733 4.8536 9.85356C4.94737 9.75979 5.00005 9.63262 5.00005 9.50001C5.00005 9.3674 4.94737 9.24022 4.8536 9.14645C4.75983 9.05269 4.63266 9.00001 4.50005 9.00001C4.36744 9.00001 4.24026 9.05269 4.1465 9.14645C4.05273 9.24022 4.00005 9.3674 4.00005 9.50001C4.00005 9.63262 4.05273 9.75979 4.1465 9.85356C4.24026 9.94733 4.36744 10 4.50005 10ZM4.50005 10V7.55001C5.63121 6.8469 6.79958 6.20552 8.00005 5.62867M3.32872 13.3287C3.7007 12.9576 3.99567 12.5167 4.19669 12.0312C4.39771 11.5458 4.5008 11.0254 4.50005 10.5V9.50001" stroke="black" stroke-linecap="round" stroke-linejoin="round"/>
</svg>
