<svg width="253" height="195" viewBox="0 0 253 195" fill="none" xmlns="http://www.w3.org/2000/svg">
<g clip-path="url(#clip0_210_1064)">
<path d="M78.6086 107.997C79.6788 106.563 80.3874 104.896 80.6796 103.134L92.5867 88.7287L85.5593 83.2703L74.2366 98.4707C72.6514 99.2953 71.2854 100.488 70.2554 101.952C67.6293 105.571 67.3663 109.862 69.6746 111.529C71.9794 113.2 75.9788 111.617 78.605 107.997H78.6086Z" fill="#FFB6B6"/>
<path d="M126.836 50.8262L111.941 40.8835L81.7134 86.8277L89.5845 95.2671L126.836 50.8262Z" fill="white"/>
<path d="M0 106.746C0 107.063 0.255674 107.319 0.573439 107.319H252.427C252.744 107.319 253 107.063 253 106.746C253 106.428 252.744 106.173 252.427 106.173H0.573439C0.255674 106.173 0 106.428 0 106.746Z" fill="#3F3D56"/>
<path d="M101.415 37.9644L99.7529 26.5258L114.429 22.7969L116.379 32.9183L101.415 37.9644Z" fill="#FFB6B6"/>
<path d="M57.1504 160.509L58.8926 176.746L70.8874 173.071L68.9516 160.122L57.1504 160.509Z" fill="#FFB6B6"/>
<path d="M99.5228 89.9583C99.5228 89.9583 60.244 97.4964 55.6017 108.902C50.9594 120.308 56.376 163.023 56.376 163.023L69.7258 164.377L75.336 115.28C75.336 115.28 109.392 114.7 111.905 110.643C114.418 106.585 114.034 91.8921 114.034 91.8921L99.5228 89.9583Z" fill="#466C40"/>
<path d="M57.3073 168.759L49.5276 176.479C49.5276 176.479 36.2508 187.374 44.7647 186.794C53.2787 186.214 75.336 180.996 75.1424 176.935C74.9488 172.874 71.4644 164.76 71.4644 164.76L57.3037 168.755H57.3073V168.759Z" fill="#2F2E41"/>
<path d="M102.624 165.187L111.397 178.964L120.517 170.357L113.03 159.608L102.624 165.187Z" fill="#FFB6B6"/>
<path d="M109.257 83.179C109.257 83.179 77.4069 107.348 78.3091 119.626C79.2149 131.903 103.044 167.781 103.044 167.781L115.608 163.074L98.8287 116.59C98.8287 116.59 129.09 100.974 129.539 96.223C129.988 91.4724 123.118 78.4795 123.118 78.4795L109.253 83.179H109.257Z" fill="#466C40"/>
<path d="M106.689 171.594L102.259 183.368C102.259 183.368 95.8338 198.528 103.205 194.234C110.575 189.939 128.023 175.487 126.047 171.933C124.071 168.379 117.343 162.651 117.343 162.651L106.689 171.594Z" fill="#2F2E41"/>
<path d="M106.557 30.1089C113.154 30.1089 118.501 24.7672 118.501 18.1778C118.501 11.5884 113.154 6.24658 106.557 6.24658C99.9611 6.24658 94.6138 11.5884 94.6138 18.1778C94.6138 24.7672 99.9611 30.1089 106.557 30.1089Z" fill="#FFB6B6"/>
<path d="M115.389 27.3359L100.491 38.355L98.1678 86.2913L92.5576 91.7023L111.905 110.646C111.905 110.646 133.188 104.075 131.058 94.0229L128.929 83.9707L129.696 72.7547C130.821 56.3539 125.708 40.1355 115.382 27.3396H115.389V27.3359Z" fill="white"/>
<path d="M115.148 27.584L107.88 27.3432C107.88 27.3432 109.764 15.9666 105.272 16.0287L101.21 14.0985C101.21 14.0985 91.0526 7.26089 95.7095 4.39303C100.37 1.52882 103.621 -1.04715 106.283 0.430565C108.95 1.90828 114.348 2.48477 114.348 2.48477C114.348 2.48477 123.925 6.51291 123.64 9.88064C123.355 13.2484 121.178 28 115.144 27.5804H115.148V27.584Z" fill="#2F2E41"/>
<path d="M83.4447 108.767C84.4418 107.282 85.07 105.582 85.2746 103.809L96.4585 88.8381L89.1718 83.73L78.6124 99.4667C77.0674 100.368 75.7635 101.63 74.8066 103.137C72.3594 106.885 72.3119 111.179 74.697 112.733C77.0821 114.288 80.9975 112.511 83.4447 108.767Z" fill="#FFB6B6"/>
<path d="M128.794 49.2935L113.431 40.0952L85.501 87.4733L93.7775 95.5113L128.794 49.2935Z" fill="white"/>
<path d="M206.906 120.067L210.186 151.446L197.679 152.449L196.964 121.994L206.906 120.067Z" fill="#FFB6B6"/>
<path d="M210.335 144.524L220.416 148.837C220.416 148.837 236.779 154.073 228.653 156.671C220.526 159.268 198.096 162.545 196.777 158.699C195.459 154.854 195.7 146.027 195.7 146.027L210.335 144.528V144.524Z" fill="#2F2E41"/>
<path d="M156.472 79.968L161.67 82.4564C161.67 82.4564 199.867 80.3146 202.461 87.3931C205.054 94.4752 210.069 136.785 210.069 136.785L196.584 137.65L190.707 108.982L156.476 79.968H156.472Z" fill="#466C40"/>
<path d="M192.65 88.5278C191.368 87.28 189.808 86.3569 188.095 85.8351L175.37 72.1489L169.026 78.3882L182.617 91.6C183.227 93.2784 184.231 94.789 185.546 96.0003C188.793 99.0798 193.015 99.9008 194.977 97.8393C196.938 95.7778 195.897 91.6073 192.65 88.5315V88.5278Z" fill="#FFB6B6"/>
<path d="M142.271 33.2468L130.441 46.6849L172.057 82.6682L181.466 75.9874L142.271 33.2468Z" fill="white"/>
<path d="M187.876 119.425L167.736 143.725L158.262 135.508L179.538 113.678L187.876 119.425Z" fill="#FFB6B6"/>
<path d="M172.426 137.066L176.4 147.275C176.4 147.275 184.111 162.614 176.565 158.634C169.019 154.653 150.979 140.945 152.802 137.311C154.624 133.677 161.107 127.671 161.107 127.671L172.426 137.063V137.066Z" fill="#2F2E41"/>
<path d="M133.655 89.8123C133.655 89.8123 126.047 107.771 138.495 107.771C150.942 107.771 180.159 106.735 180.159 106.735L171.513 121.932L181.715 127.113C181.715 127.113 203.151 106.906 201.767 97.7555C200.382 88.6046 161.67 82.4565 161.67 82.4565L153.85 84.5107L133.655 89.8123Z" fill="#466C40"/>
<path d="M132.625 4.05737C132.625 4.05737 146.044 4.76887 147.246 9.9135C148.448 15.0545 145.697 20.3049 150.015 20.2502C154.332 20.1955 155.84 22.1147 155.84 22.1147C155.84 22.1147 151.436 34.5749 144.518 35.2901C137.6 36.0052 132.625 4.05737 132.625 4.05737Z" fill="#2F2E41"/>
<path d="M141.625 38.4206L142.041 26.8689L127.048 24.7454L126.2 35.0164L141.625 38.4206Z" fill="#FFB6B6"/>
<path d="M145.697 15.5177C147.79 21.7643 144.415 28.5253 138.162 30.616C131.909 32.7067 125.141 29.3353 123.048 23.0888C120.955 16.8422 124.33 10.0812 130.583 7.99053C136.836 5.89983 143.604 9.27121 145.697 15.5177Z" fill="#FFB6B6"/>
<path d="M143.656 33.8962L129.93 31.0393L127.373 53.9457C126.719 56.4852 127.983 66.1323 128.655 68.6645L132.79 96.4492L161.67 82.4528L155.092 66.1724L156.52 54.4602L143.652 33.8962H143.656Z" fill="white"/>
<path d="M150.179 64.618C148.426 64.9829 146.789 65.7601 145.398 66.8875L126.924 69.7846L128.56 78.5268L147.122 74.6446C148.857 75.0752 150.672 75.0861 152.411 74.6774C156.783 73.7069 159.821 70.6675 159.204 67.8909C158.587 65.1143 154.544 63.6475 150.175 64.618H150.179Z" fill="#FFB6B6"/>
<path d="M139.262 48.345L126.869 37.7529L108.585 69.7847C108.044 77.2499 114.863 83.1243 122.175 81.486L138.575 77.4907L135.445 64.308L126.226 63.9687L139.269 48.3414H139.262V48.345Z" fill="white"/>
<path d="M125.185 6.3707C125.185 6.3707 110.487 10.4171 113.822 16.2331C117.157 22.0491 121.072 23.6837 120.587 26.9675C120.101 30.2513 123.969 42.9888 129.853 41.0222C135.737 39.0556 144.521 35.2901 144.521 35.2901C144.521 35.2901 132.117 24.8804 134.302 23.1145C136.486 21.3485 129.594 8.88464 129.594 8.88464C129.594 8.88464 136.588 5.50597 140.295 6.5203C144.003 7.53463 146.07 7.19165 146.07 7.19165C146.07 7.19165 135.971 -2.25478 131.482 1.49972C126.993 5.25421 125.189 6.37435 125.189 6.37435C125.189 6.37435 125.189 6.37435 125.189 6.3707H125.185Z" fill="#2F2E41"/>
</g>
<defs>
<clipPath id="clip0_210_1064">
<rect width="253" height="195" fill="white"/>
</clipPath>
</defs>
</svg>
