<svg width="177" height="178" viewBox="0 0 177 178" fill="none" xmlns="http://www.w3.org/2000/svg">
<g clip-path="url(#clip0_210_796)">
<path d="M39.4765 29.7261L38.1346 36.7604L44.8247 38.6436L43.9935 31.1337L39.4765 29.7261Z" fill="#FFB6B6"/>
<path d="M0 175.336C0 175.557 0.177809 175.735 0.39923 175.735H175.612C175.833 175.735 176.011 175.557 176.011 175.336C176.011 175.115 175.833 174.938 175.612 174.938H0.39923C0.177809 174.938 0 175.115 0 175.336Z" fill="#3F3D56"/>
<path d="M119.44 79.8254H50.4442C42.6201 79.8254 36.2773 86.1586 36.2773 93.9711V160.774C36.2773 168.587 42.6201 174.92 50.4442 174.92H119.44C127.264 174.92 133.607 168.587 133.607 160.774V93.971C133.607 86.1586 127.264 79.8254 119.44 79.8254Z" fill="white"/>
<path d="M119.44 175.255H50.4443C42.4477 175.255 35.9419 168.759 35.9419 160.774V93.9711C35.9419 85.9865 42.4477 79.4905 50.4443 79.4905H119.44C127.437 79.4905 133.942 85.9865 133.942 93.9711V160.774C133.942 168.759 127.437 175.255 119.44 175.255ZM50.4443 80.1604C42.8176 80.1604 36.6128 86.3558 36.6128 93.9711V160.774C36.6128 168.389 42.8176 174.585 50.4443 174.585H119.44C127.067 174.585 133.272 168.389 133.272 160.774V93.9711C133.272 86.3558 127.067 80.1604 119.44 80.1604L50.4443 80.1604Z" fill="#395833"/>
<path d="M124.438 108.787H96.7052C95.5289 108.787 94.5719 107.831 94.5719 106.657C94.5719 105.482 95.5289 104.527 96.7052 104.527H124.438C125.614 104.527 126.571 105.482 126.571 106.657C126.571 107.831 125.614 108.787 124.438 108.787Z" fill="white"/>
<path d="M98.421 125.538H71.4636C70.7839 125.538 70.231 124.986 70.231 124.307C70.231 123.628 70.7839 123.076 71.4636 123.076H98.421C99.1006 123.076 99.6533 123.628 99.6533 124.307C99.6533 124.986 99.1006 125.538 98.421 125.538Z" fill="white"/>
<path d="M60.3194 84.4004H44.9288C44.8713 84.4004 44.8247 84.4469 44.8247 84.5043V86.2933C44.8247 86.3507 44.8713 86.3972 44.9288 86.3972H60.3194C60.3768 86.3972 60.4234 86.3507 60.4234 86.2933V84.5043C60.4234 84.4469 60.3768 84.4004 60.3194 84.4004Z" fill="white"/>
<path d="M112.16 86.3971C113.043 86.3971 113.76 85.6819 113.76 84.7996C113.76 83.9174 113.043 83.2021 112.16 83.2021C111.276 83.2021 110.56 83.9174 110.56 84.7996C110.56 85.6819 111.276 86.3971 112.16 86.3971Z" fill="#395833"/>
<path d="M116.559 86.3971C117.443 86.3971 118.159 85.6819 118.159 84.7996C118.159 83.9174 117.443 83.2021 116.559 83.2021C115.676 83.2021 114.96 83.9174 114.96 84.7996C114.96 85.6819 115.676 86.3971 116.559 86.3971Z" fill="#395833"/>
<path d="M120.959 86.3971C121.843 86.3971 122.559 85.6819 122.559 84.7996C122.559 83.9174 121.843 83.2021 120.959 83.2021C120.076 83.2021 119.359 83.9174 119.359 84.7996C119.359 85.6819 120.076 86.3971 120.959 86.3971Z" fill="#395833"/>
<path d="M50.2764 132.126C50.2764 132.347 50.4542 132.524 50.6756 132.524H119.209C119.43 132.524 119.608 132.347 119.608 132.126C119.608 131.905 119.43 131.727 119.209 131.727H50.6756C50.4542 131.727 50.2764 131.905 50.2764 132.126Z" fill="#395833"/>
<path d="M71.1777 33.8039C72.6367 32.6001 74.4414 32.376 75.2085 33.3033C75.9755 34.2305 75.4145 35.9577 73.9548 37.1617C73.3783 37.6506 72.693 37.9946 71.9561 38.1648L65.7097 43.1873L63.4117 40.2102L69.8135 35.575C70.1201 34.8843 70.5878 34.277 71.1777 33.8039Z" fill="#FFB6B6"/>
<path d="M35.0744 45.1358C35.0712 44.9137 35.0733 42.9762 36.5098 41.7516C38.1599 40.3449 40.4884 40.9143 41.3051 41.114C43.1916 41.5753 43.3464 42.3834 45.118 43.2137C48.4326 44.7671 44.2796 43.972 46.2519 43.4738C46.9346 43.3014 56.7562 42.6213 59.2009 41.1189C63.9557 38.1968 67.1955 36.4248 67.1955 36.4248L69.3134 40.6542C69.3134 40.6542 66.2509 44.9061 61.9407 48.056C57.5195 51.2871 55.3088 52.9026 51.9493 53.5268C51.66 53.5806 44.5447 54.7936 38.8139 50.5186C37.5067 49.5434 35.1117 47.7568 35.0744 45.1358Z" fill="white"/>
<path d="M41.6441 34.3793C45.7188 34.3793 49.022 31.0811 49.022 27.0125C49.022 22.944 45.7188 19.6458 41.6441 19.6458C37.5694 19.6458 34.2662 22.944 34.2662 27.0125C34.2662 31.0811 37.5694 34.3793 41.6441 34.3793Z" fill="#FFB6B6"/>
<path d="M99.425 76.5057L91.8268 68.7397L87.9045 72.825L93.5655 80.2711L99.1806 80.9124L99.425 76.5057Z" fill="#FFB6B6"/>
<path d="M56.0389 61.9427C56.4833 61.9796 57.8956 62.2621 59.2455 61.5205C60.1668 61.0144 60.6392 60.2619 60.7988 60.0226C62.7786 57.0537 70.3772 52.4241 77.1969 52.1392C78.7412 52.0747 79.7578 52.2533 80.6817 52.7342C81.9919 53.4161 82.5149 54.3929 84.1774 56.6811C85.0868 57.9327 86.0931 59.1119 87.0135 60.3556C92.4018 67.6364 94.4445 68.208 94.2357 70.5422C94.0041 73.1321 91.2068 75.5892 89.3475 75.3055C88.5861 75.1894 88.2913 74.6607 87.274 73.5905C84.2913 70.4527 83.0573 71.0324 80.9337 68.629C78.4544 65.8229 78.7789 63.4963 77.4854 63.4064C76.2859 63.3231 75.7761 65.3079 73.2152 67.9446C72.0434 69.1511 71.2089 69.7046 68.6667 71.4656C58.7668 78.3233 58.6088 78.8052 56.6108 79.3522C55.7367 79.5915 49.5326 81.2898 47.3225 78.5871C43.8639 74.3576 52.0345 61.6105 56.0389 61.9427Z" fill="#CCE29E"/>
<path d="M97.102 78.2607C97.6608 78.0101 98.3142 77.7172 98.5244 77.0435C98.6667 76.5876 98.5847 76.0255 98.2907 75.6371C97.9515 75.189 97.4493 75.1299 97.4696 75.0506C97.5006 74.9299 98.688 74.9771 99.9914 75.4372C100.237 75.524 101.352 75.9305 102.769 77.0355C103.905 77.9208 103.752 78.0982 104.464 78.6087C106.65 80.1756 108.701 78.9407 109.883 80.4101C110.34 80.9773 110.535 81.7824 110.343 82.4335C109.957 83.7409 108.081 84.1909 107.055 84.4232C104.586 84.9826 102.716 84.5259 100.764 84.1975C94.1267 83.0807 90.3972 84.0979 89.898 82.5624C89.8035 82.2718 89.957 82.2965 90.4688 80.1639C90.9739 78.0591 90.9574 77.481 91.3876 77.3124C92.0352 77.0587 92.47 78.2128 94.1014 78.6078C95.547 78.9578 96.7399 78.423 97.102 78.2607Z" fill="#2F2E41"/>
<path d="M85.9166 101.911L83.9969 91.2249L78.454 92.406L78.9505 101.741L83.2361 105.42L85.9166 101.911Z" fill="#FFB6B6"/>
<path d="M58.2067 65.5347C58.5537 65.8143 59.5634 66.84 61.0974 66.9832C62.1443 67.081 62.9585 66.7233 63.2251 66.6147C66.5329 65.2681 75.4241 65.6979 81.2272 69.2858C82.5414 70.0984 83.282 70.8162 83.7761 71.7322C84.4767 73.031 84.3601 74.1325 84.449 76.958C84.4975 78.5036 84.667 80.0435 84.7292 81.5886C85.0931 90.6344 86.4619 92.2527 84.9764 94.0671C83.3283 96.0801 79.6318 96.5448 78.2529 95.2677C77.6882 94.7446 77.7415 94.1419 77.5016 92.686C76.7983 88.4172 75.4511 88.205 75.0456 85.0256C74.5722 81.3136 76.1492 79.5704 75.1294 78.7707C74.1837 78.0292 72.6457 79.3857 69.0438 80.1316C67.3957 80.4729 66.3939 80.463 63.3 80.4947C51.2517 80.6183 50.8499 80.9285 48.8891 80.2608C48.0313 79.9687 41.9425 77.8954 41.6337 74.4198C41.1506 68.9809 55.08 63.0145 58.2067 65.5347Z" fill="#CCE29E"/>
<path d="M83.0075 102.061C83.6108 102.167 84.3163 102.291 84.8691 101.851C85.2432 101.554 85.4915 101.043 85.4666 100.556C85.4379 99.9953 85.0557 99.6649 85.1171 99.6106C85.2106 99.5281 86.1665 100.233 86.9863 101.344C87.141 101.554 87.8345 102.515 88.3859 104.224C88.8278 105.594 88.6015 105.655 88.9037 106.477C89.8313 108.999 92.2224 109.127 92.3748 111.006C92.4336 111.731 92.1419 112.506 91.6168 112.937C90.5622 113.803 88.7567 113.123 87.7776 112.74C85.4195 111.819 84.1297 110.393 82.6993 109.027C77.8349 104.381 74.1769 103.131 74.6274 101.581C74.7126 101.287 74.8257 101.394 76.4486 99.9163C78.0503 98.4579 78.3617 97.9703 78.8124 98.072C79.491 98.2252 79.2017 99.424 80.3294 100.665C81.3288 101.766 82.6166 101.992 83.0075 102.061Z" fill="#2F2E41"/>
<path d="M42.65 28.4209C42.9373 27.395 42.5765 27.0211 42.9442 26.5606C42.9442 26.5606 43.0922 26.3753 44.415 25.8753C44.0247 23.6141 44.317 23.2318 44.317 23.2317C44.6538 22.7911 45.3285 22.6846 45.7878 22.7422C46.7592 22.8641 46.9312 23.741 47.5528 23.7213C48.4115 23.6941 49.4413 21.9779 49.1217 20.4903C48.8609 19.2769 47.7366 18.3758 47.4548 18.5322C47.1753 18.6872 46.1693 18.0035 45.7878 18.1405C45.5273 18.2341 44.3009 18.1096 44.0228 18.2384C43.7191 18.3791 42.8495 19.255 42.7663 19.1446C42.1885 18.3777 42.2008 18.11 41.8656 17.9447C41.2716 17.6518 40.6258 18.1932 39.5123 18.728C37.2211 19.8284 36.5503 19.172 35.492 20.0987C34.9574 20.5668 34.6707 21.4615 34.1192 23.2317C33.3479 25.7074 32.9623 26.9453 33.3348 28.1272C33.7146 29.3325 34.2741 29.0701 35.0998 30.7707C36.0189 32.6636 35.7021 33.7639 36.5706 34.1975C37.2418 34.5325 38.3205 34.3193 38.7278 33.7079C39.4251 32.6612 37.6228 31.2453 38.2375 29.5958C38.6149 28.5832 39.779 27.8155 40.4928 28.0292C41.3 28.271 41.3594 29.716 41.8656 29.6937C42.299 29.6745 42.6 28.5996 42.65 28.4209Z" fill="#2F2E41"/>
<path d="M37.0608 35.4702C38.5706 33.7799 44.7203 35.5294 45.2975 38.2116C45.5349 39.3149 44.6584 39.7807 44.9053 41.051C45.2663 42.9089 47.3103 42.7823 48.8275 44.6736C50.9814 47.3587 48.7624 49.9834 51.1808 54.4644C51.6976 55.4219 52.1331 56.229 53.0439 57.01C55.1337 58.8023 57.0786 58.1876 58.1427 59.8494C58.9385 61.092 58.6115 62.6236 58.535 62.9824C58.2209 64.4536 57.3697 64.8121 56.77 66.0176C55.7721 68.0232 56.9019 69.4957 56.9661 71.8921C57.0463 74.8903 55.4506 79.0464 52.2594 80.4101C48.6742 81.9421 44.3502 79.4047 42.2577 76.8854C41.0092 75.382 40.6468 73.9953 40.1005 72.2837C37.6593 64.634 36.2802 65.3258 34.4133 59.2619C32.2792 52.3297 31.8596 44.2083 34.4133 41.6384C34.7518 41.2978 35.6833 40.5105 36.2764 39.0928C37.0744 37.1852 36.385 36.2269 37.0608 35.4702Z" fill="white"/>
<path d="M59.3693 74.8176C60.5398 76.3026 60.7213 78.1094 59.7746 78.8531C58.828 79.5968 57.1121 78.9957 55.9413 77.51C55.4655 76.9229 55.1374 76.2306 54.9844 75.491L50.1044 69.1363L52.626 67.2158L57.6283 73.4138C58.3126 73.7362 58.9096 74.2176 59.3693 74.8176Z" fill="#FFB6B6"/>
<path d="M41.4968 41.9119C41.7139 41.8635 43.6139 41.4702 45.1077 42.6245C46.8235 43.9505 46.7404 46.3427 46.7113 47.1818C46.6439 49.12 45.8832 49.4361 45.4307 51.3373C44.5841 54.8943 46.1964 58.1999 47.0872 60.0261C47.3956 60.6583 48.3862 62.5926 50.3581 64.6758C54.1932 68.7273 57.6151 70.8592 57.6151 70.8592L53.939 74.1219C53.939 74.1219 48.0834 72.3398 44.1157 68.7694C40.0457 65.107 33.7868 52.1487 32.4893 48.9922C32.3776 48.7203 33.9603 53.1397 36.9824 46.6656C37.6717 45.1889 38.9347 42.4832 41.4968 41.9119Z" fill="white"/>
<path d="M91.9004 141.251C89.5638 141.608 87.8546 143.102 88.0828 144.587C88.311 146.071 90.3899 146.985 92.7272 146.627C93.6629 146.496 94.5537 146.144 95.3251 145.6L105.206 143.96L104.547 140.06L94.6879 141.453C93.7883 141.164 92.8324 141.095 91.9004 141.251Z" fill="#FFB6B6"/>
<path d="M134.48 129.094L130.649 137.212L111.388 143.686L95.405 144.538L95.0048 140.705L112.326 137.088L130.1 128.702L134.48 129.094Z" fill="white"/>
<path d="M98.9556 159.918L95.5158 168.606L91.0643 165.575L93.6948 156.484L98.9556 159.918Z" fill="#FFB6B6"/>
<path d="M84.5895 156.686L75.4841 165.373L79.1263 169.212L88.434 161.939L84.5895 156.686Z" fill="#FFB6B6"/>
<path d="M136.186 128.4L136.085 127.693L133.758 123.147L126.069 125.168L127.486 131.431L136.186 128.4Z" fill="#FFB6B6"/>
<path d="M132.949 158.706L133.185 161.74C133.185 161.74 134.163 174.465 126.272 175.475C118.38 176.485 114.941 177.495 110.287 169.616L103.002 156.686L98.7477 161.74L93.0878 157.292C93.0878 157.292 97.1346 141.533 100.372 140.927C100.777 140.851 101.181 140.813 101.58 140.805C104.26 140.749 106.786 142.058 108.39 144.203L117.571 156.483L120.91 154.968L132.949 158.706Z" fill="#CCE29E"/>
<path d="M89.2433 168.202L91.0644 164.767L96.3253 168.404C96.3253 168.404 97.5393 172.849 95.7182 173.455C93.8972 174.061 88.8386 173.253 88.8386 173.253C88.8386 173.253 79.5309 175.273 79.3286 173.455C79.1263 171.636 83.5778 171.232 83.5778 171.232L89.2433 168.202Z" fill="#2F2E41"/>
<path d="M109.073 165.777L95.01 156.93L87.8269 163.353L82.9707 157.696C82.9707 157.696 91.8737 144.563 94.5042 143.957C97.1346 143.351 101.384 142.947 101.384 142.947L114.334 154.867L109.073 165.777Z" fill="#CCE29E"/>
<path d="M75.2817 164.565L79.9356 169.616L79.3218 170.14C79.3218 170.14 78.1145 175.391 75.2817 173.614C72.4489 171.838 72.2466 171.434 72.2466 171.434C72.2466 171.434 64.1529 173.253 63.3436 170.02C62.5342 166.787 64.76 167.393 64.76 167.393L66.781 168.606L75.2817 164.565Z" fill="#2F2E41"/>
<path d="M128.498 127.39C132.074 127.39 134.972 124.496 134.972 120.925C134.972 117.354 132.074 114.46 128.498 114.46C124.922 114.46 122.023 117.354 122.023 120.925C122.023 124.496 124.922 127.39 128.498 127.39Z" fill="#FFB6B6"/>
<path d="M126.98 130.118L136.288 127.289C136.288 127.289 139.93 135.775 139.323 139.613C138.716 143.452 133.185 161.74 133.185 161.74L120.91 154.968C120.91 154.968 120.707 150.927 120.1 149.109C119.493 147.291 117.571 141.735 121.82 137.088C126.069 132.441 126.98 130.118 126.98 130.118Z" fill="white"/>
<path d="M106.494 172.542C104.98 174.354 104.688 176.603 105.843 177.565C106.998 178.528 109.162 177.839 110.677 176.026C111.292 175.31 111.727 174.458 111.944 173.54L118.265 165.781L115.186 163.293L108.718 170.852C107.852 171.23 107.09 171.809 106.494 172.542Z" fill="#FFB6B6"/>
<path d="M134.119 134.194L136.319 142.895L125.552 160.105L114.56 171.136L110.997 168.185L122.083 154.412L130.486 136.666L134.119 134.194Z" fill="white"/>
<path d="M122.528 119.814C124.189 119.81 124.283 119.821 124.552 119.814C126.611 119.76 127.15 118.95 128.194 119.006C130.057 119.104 127.598 128.432 126.575 132.744C125.572 136.973 128.962 140.763 129.206 141.028C132.646 144.764 138.69 145.447 139.727 143.856C140.567 142.568 137.592 140.61 138.311 137.795C139.014 135.043 142.26 135.336 143.167 132.744C144.117 130.029 140.924 128.66 138.918 122.036C137.766 118.232 137.97 117.523 136.895 115.167C134.021 108.869 119.935 111.55 121.517 117.389C121.823 118.519 121.009 119.817 122.528 119.814Z" fill="#2F2E41"/>
<path d="M143.204 43.0635H75.154C73.2295 43.0635 71.6639 41.5002 71.6639 39.5787V3.48482C71.6639 1.5634 73.2295 0 75.154 0H143.204C145.129 0 146.694 1.56339 146.694 3.48482V39.5787C146.694 41.5002 145.129 43.0635 143.204 43.0635Z" fill="white"/>
<path d="M143.204 43.0635H75.154C73.2295 43.0635 71.6639 41.5002 71.6639 39.5787V3.48482C71.6639 1.5634 73.2295 0 75.154 0H143.204C145.129 0 146.694 1.56339 146.694 3.48482V39.5787C146.694 41.5002 145.129 43.0635 143.204 43.0635ZM75.154 0.58194C73.551 0.58194 72.2468 1.8842 72.2468 3.48482V39.5787C72.2468 41.1793 73.551 42.4816 75.154 42.4816H143.204C144.807 42.4816 146.112 41.1793 146.112 39.5787V3.48482C146.112 1.8842 144.807 0.58194 143.204 0.58194H75.154Z" fill="#395833"/>
<path d="M137.952 4.36447C138.435 4.36447 138.826 3.97365 138.826 3.49156C138.826 3.00947 138.435 2.61865 137.952 2.61865C137.469 2.61865 137.078 3.00947 137.078 3.49156C137.078 3.97365 137.469 4.36447 137.952 4.36447Z" fill="#395833"/>
<path d="M140.283 4.36447C140.766 4.36447 141.158 3.97365 141.158 3.49156C141.158 3.00947 140.766 2.61865 140.283 2.61865C139.801 2.61865 139.409 3.00947 139.409 3.49156C139.409 3.97365 139.801 4.36447 140.283 4.36447Z" fill="#395833"/>
<path d="M142.615 4.36447C143.098 4.36447 143.489 3.97365 143.489 3.49156C143.489 3.00947 143.098 2.61865 142.615 2.61865C142.132 2.61865 141.74 3.00947 141.74 3.49156C141.74 3.97365 142.132 4.36447 142.615 4.36447Z" fill="#395833"/>
<path d="M76.6179 17.6038C76.3769 17.6038 76.1808 17.7995 76.1808 18.0402C76.1808 18.1576 76.2262 18.2661 76.3086 18.3462C76.3917 18.4312 76.5005 18.4767 76.6179 18.4767H142.032C142.273 18.4767 142.469 18.2809 142.469 18.0402C142.469 17.9229 142.424 17.8143 142.341 17.7342C142.258 17.6492 142.149 17.6038 142.032 17.6038H76.6179Z" fill="#CCE29E"/>
<path d="M133.872 17.4583V18.6221H76.6178C76.4576 18.6221 76.3119 18.5581 76.207 18.4505C76.0991 18.3457 76.035 18.2002 76.035 18.0402C76.035 17.7201 76.2973 17.4583 76.6178 17.4583H133.872Z" fill="white"/>
<path d="M141.303 15.276H135.475C134.832 15.276 134.31 14.754 134.31 14.1121C134.31 13.4702 134.832 12.9482 135.475 12.9482H141.303C141.946 12.9482 142.469 13.4702 142.469 14.1121C142.469 14.754 141.946 15.276 141.303 15.276Z" fill="#CCE29E"/>
<path d="M103.129 9.16565H77.055C76.4123 9.16565 75.8894 8.64367 75.8894 8.00177C75.8894 7.35988 76.4123 6.83789 77.055 6.83789H103.129C103.772 6.83789 104.295 7.35988 104.295 8.00177C104.295 8.64367 103.772 9.16565 103.129 9.16565Z" fill="#CCE29E"/>
<path d="M76.6179 30.6973C76.3769 30.6973 76.1808 30.893 76.1808 31.1337C76.1808 31.2511 76.2262 31.3596 76.3086 31.4397C76.3917 31.5247 76.5005 31.5702 76.6179 31.5702H142.032C142.273 31.5702 142.469 31.3744 142.469 31.1337C142.469 31.0164 142.424 30.9078 142.341 30.8277C142.258 30.7427 142.149 30.6973 142.032 30.6973H76.6179Z" fill="#CCE29E"/>
<path d="M111.434 30.5518V31.7156H76.6178C76.4576 31.7156 76.3119 31.6516 76.207 31.544C76.0991 31.4392 76.035 31.2937 76.035 31.1337C76.035 30.8136 76.2973 30.5518 76.6178 30.5518H111.434Z" fill="white"/>
<path d="M141.303 28.3695H135.475C134.832 28.3695 134.31 27.8475 134.31 27.2056C134.31 26.5637 134.832 26.0417 135.475 26.0417H141.303C141.946 26.0417 142.469 26.5637 142.469 27.2056C142.469 27.8475 141.946 28.3695 141.303 28.3695Z" fill="#CCE29E"/>
</g>
<defs>
<clipPath id="clip0_210_796">
<rect width="176.011" height="178" fill="white"/>
</clipPath>
</defs>
</svg>
